PathFileType	4	(X/Y/Z)	23_1_5_p0_0-362_filt_butterworth.trc
DataRate	CameraRate	NumFrames	NumMarkers	Units	OrigDataRate	OrigDataStartFrame	OrigNumFrames
59.0	59.0	5	27	m	59.0	0	362
Frame#	Time	RHip			RKnee			RAnkle			RBigToe			RSmallToe			RHeel			LHip			LKnee			LAnkle			LBigToe			LSmallToe			LHeel			Neck			Head			Nose			RShoulder			RElbow			RWrist			RThumb			RIndex			RPinky			LShoulder			LElbow			LWrist			LThumb			LIndex			LPinky			
		X1	Y1	Z1	X2	Y2	Z2	X3	Y3	Z3	X4	Y4	Z4	X5	Y5	Z5	X6	Y6	Z6	X7	Y7	Z7	X8	Y8	Z8	X9	Y9	Z9	X10	Y10	Z10	X11	Y11	Z11	X12	Y12	Z12	X13	Y13	Z13	X14	Y14	Z14	X15	Y15	Z15	X16	Y16	Z16	X17	Y17	Z17	X18	Y18	Z18	X19	Y19	Z19	X20	Y20	Z20	X21	Y21	Z21	X22	Y22	Z22	X23	Y23	Z23	X24	Y24	Z24	X25	Y25	Z25	X26	Y26	Z26	X27	Y27	Z27	
0	0.0	0.17683809164814485	0.474994505011193	0.9587354438329283	0.20275514488562615	0.5141798132928785	1.3931834338523226	0.17668353342500037	0.5131670787384489	1.7800297710295347	0.15420126117389976	0.41446228009653024	1.8177777249301803	0.2095639789501721	0.4043427550251315	1.805556724829845	0.17121047058362646	0.5292885803401307	1.8192629047524391	-0.0033962266521153175	0.46008124770368414	0.9643401615725117	-0.027047044708312245	0.5479514999613583	1.39145603551418	-0.0202269697643592	0.5623509972567322	1.8035220553822104	-0.0020163034998389234	0.4251413922893998	1.8071461804602094	-0.05927775188234401	0.42890127115808996	1.8021097987116288	-0.01584480672561327	0.5676872758873737	1.8225228548049535	0.08377543098105683	0.42458432863663603	0.39486419798087685	0.07170076371861867	0.3753430707342722	0.1559799295322742	0.04523005153607187	0.30411628791948275	0.273533574370739	0.20631331788621554	0.40582037359358814	0.48897125552995246	0.22957402005674166	0.4218461862558054	0.7415924987199649	0.12818041443643136	0.313974666438654	0.9473461137234496	0.04405210007407048	0.3101563397807839	1.0375414300783925	0.04501615875051598	0.3104721170134067	1.04625902868296	0.05841780411604076	0.3234694542671865	1.0509477931075444	-0.05726290679528523	0.4951164631169016	0.49503614199465995	-0.08387203696218949	0.44278255107954134	0.7578456176528647	0.004580210840849436	0.30341682423561595	0.9327065683443767	0.06519514256934589	0.28608330672829696	1.0038001207152698	0.06587904083532005	0.2839399336631996	1.0332237559664441	0.042079041591617475	0.323800433385222	1.0507656714111682
1	0.0169491525423728	0.17708195125954895	0.4695895323742536	0.9619763501139307	0.20202659357430428	0.5230514524998697	1.4050520865058536	0.17494621237851316	0.513117758251952	1.7801046387273614	0.15007439859107596	0.40552824225152095	1.8099558259990942	0.20413744455232347	0.3878549616765561	1.796059511329739	0.1721802028115075	0.5330153704149285	1.8251903396076399	-0.005537067991127246	0.4680516637025773	0.9673848350325516	-0.026465768871420558	0.5481353766889175	1.3934339170512355	-0.020261638076144686	0.5624927920617978	1.802686963412146	-0.0021495238054943158	0.4165989392927045	1.8020573836730645	-0.05915532999756192	0.4288036463212732	1.8020127118267164	-0.01572655757370273	0.5677685737206701	1.8223374255758036	0.08378305095694095	0.42457045058738274	0.3948714549448526	0.07190542916922767	0.37590681174408935	0.15601692440193585	0.042954172140045335	0.30410791672031556	0.2735444922437368	0.2063246851090655	0.40547282446950395	0.49108785549306544	0.22463598585041245	0.4142001140987072	0.742474179270461	0.12902649340653666	0.30738587621976854	0.947079146256282	0.04412624524829974	0.3027017176323098	1.0371435862064364	0.04496285386223777	0.3106246643104421	1.0472060813948323	0.05874444413079821	0.3235791683880974	1.0514670873774925	-0.059834847719228104	0.488400266930029	0.4942299984541134	-0.08431304879896492	0.43783895916562604	0.7554453062285393	0.004379800996915964	0.3022707607406648	0.9355271121719535	0.061967980544350265	0.2862253174801981	1.008854056994152	0.06141989786487405	0.28737307249403726	1.034709736540635	0.04204929494440161	0.32402478974573673	1.0509216200324392
2	0.0338983050847457	0.1776345347287704	0.46437083137550683	0.9616829994084928	0.2018828787087802	0.5282989690530278	1.4121412760064551	0.17320090699177867	0.511620499928728	1.7794519119325751	0.14808551186470903	0.40029699346853487	1.8063571542993624	0.2009867869416492	0.37809575945261364	1.7903778472391765	0.17193874211143628	0.5333127770067431	1.8276607340737763	-0.006122560246644261	0.47018979958753954	0.9678342569131406	-0.026442490560746885	0.5480777728373761	1.3937422503189074	-0.020259930949725065	0.5624338571305999	1.8026544794557047	-0.0012818475253062235	0.41120417135268444	1.7988110292791304	-0.05904525677714231	0.4288010061907349	1.802000656864323	-0.015671336870245252	0.5679094558029179	1.8223616859010483	0.08378279715312306	0.4244800044468139	0.39484274160180827	0.07194265957163441	0.37603170133385416	0.15602274344433667	0.04161625914620938	0.30404792335345704	0.27357661219341456	0.20633505579311484	0.40525265769476615	0.49237215108720395	0.22104051645297756	0.40946006193348994	0.7428122914190156	0.12949297979094987	0.3055635016653779	0.9470037456768963	0.04501151795096993	0.2993156377886592	1.038132045812938	0.04516847437867397	0.3094978317340981	1.0476444404322407	0.0594020542125077	0.3236967282952935	1.0528166040178888	-0.06128533816009034	0.4841759464344284	0.49371463324399123	-0.08331594934717267	0.43697686755766574	0.7540687109824306	0.004629184725889011	0.30187427204413175	0.938627514489021	0.06064232726979545	0.2862751116273559	1.0152476417910445	0.060674754141675676	0.290098449345351	1.036969544619602	0.04200685655429	0.3242918103278885	1.0515632018356547
3	0.0508474576271186	0.17815813241019765	0.460741800640832	0.9590930934618707	0.20241236709317528	0.5297508630279174	1.414166718652214	0.17183636431602978	0.5078936994116847	1.7779677313146842	0.14716778300261807	0.3989404531287778	1.8061035087768826	0.20017201821284264	0.37550712466946534	1.7887906819951542	0.1712187934229168	0.5313380652046839	1.8271726422943662	-0.005282513778781861	0.46687782671920897	0.9661067196555091	-0.02664846166048418	0.5478413611865365	1.3934602661292383	-0.02023488977374786	0.5622676331062837	1.8031583154867432	-2.4531218517980674e-05	0.40939081276714256	1.7976787069576967	-0.05898230777585213	0.42884939445094833	1.8020418936057012	-0.015720379477935933	0.5680729959558543	1.8229673892013565	0.08377482408286309	0.42431024871946726	0.3947859724971695	0.07147492193672599	0.37498612881842314	0.15601463042082112	0.04126644640115184	0.30398447801201073	0.27357269101925463	0.20635682950680953	0.4051794904752209	0.4927692500369911	0.2193021231293241	0.4079389871600554	0.7425136737656681	0.12985531644628684	0.30823580156027686	0.9476407048789514	0.04636065520478975	0.2989537577415453	1.039434703935745	0.04580102234777638	0.30637462439367735	1.0475705854375421	0.06046798833653356	0.32405723897638816	1.0551044197074795	-0.061353769683104395	0.48172384139191393	0.49339923425695836	-0.08104099808813618	0.43982242348840583	0.7540989535118364	0.0058105207575996016	0.304236235998625	0.9417957681868326	0.06096610098999596	0.2861763019183516	1.0222213911876126	0.06280033924401823	0.29359613376189003	1.0404931121008703	0.041963603504796464	0.32456962334193734	1.052881382722871
4	0.0677966101694915	0.1784080908244863	0.45966145014289284	0.9575728598494662	0.20322317872624338	0.5294464390645494	1.4137288931410987	0.1711273845456786	0.5030046086748086	1.7765661209396224	0.14571276896880705	0.3993242928674604	1.8060817056557572	0.2003459189123563	0.37629674245572076	1.789190488327262	0.17099606592302358	0.5299115200119494	1.826678248063556	-0.004102469758018028	0.46297062483494655	0.9643575477243546	-0.02663531376516193	0.5476848702418121	1.3950221315381832	-0.020217255758501845	0.562168597445467	1.8035710167741996	0.0005976146932249202	0.40952408660688977	1.7979099382633756	-0.058974458360518296	0.4288544870283727	1.8020545779645878	-0.015858631316051502	0.5681482959695067	1.8244060141476799	0.08376469888281816	0.42413387606075764	0.39473984289155295	0.07025144064733621	0.37228740153685236	0.1560423075146923	0.041356256740159705	0.3040582942120738	0.27331870905457345	0.20637683806559118	0.40516538429672766	0.49265624540289116	0.21891795199508088	0.4081035943989872	0.7421766107509201	0.13083402891274132	0.3115936342022443	0.9491254280422415	0.04738120694208539	0.29913817335314064	1.039925022719667	0.04670037279777691	0.3022689835865815	1.0475008926386145	0.06219038119166783	0.3252474399645107	1.0579201388672914	-0.06047137562354557	0.4786813348156538	0.4929926378100872	-0.07867005889387697	0.4430007489761328	0.7551559299297399	0.008137312674044047	0.31152262756188587	0.9452548248485816	0.06101295033544403	0.28557436117063456	1.0273219260023287	0.06441520177211758	0.297555783247173	1.044119996412307	0.042117646480057364	0.3248270958167466	1.054492959233443
